<?xml version="1.0" encoding="UTF-8" standalone="no"?>
<!-- Created with Inkscape (http://www.inkscape.org/) -->

<svg
   version="1.1"
   id="svg2"
   xml:space="preserve"
   width="879.62665"
   height="163.2"
   viewBox="0 0 879.62665 163.2"
   sodipodi:docname="FoamLine_logo_RU.eps"
   xmlns:inkscape="http://www.inkscape.org/namespaces/inkscape"
   xmlns:sodipodi="http://sodipodi.sourceforge.net/DTD/sodipodi-0.dtd"
   xmlns="http://www.w3.org/2000/svg"
   xmlns:svg="http://www.w3.org/2000/svg"><defs
     id="defs6" /><sodipodi:namedview
     id="namedview4"
     pagecolor="#ffffff"
     bordercolor="#666666"
     borderopacity="1.0"
     inkscape:pageshadow="2"
     inkscape:pageopacity="0.0"
     inkscape:pagecheckerboard="0" /><g
     id="g8"
     inkscape:groupmode="layer"
     inkscape:label="ink_ext_XXXXXX"
     transform="matrix(1.3333333,0,0,-1.3333333,0,163.2)"><g
       id="g10"
       transform="scale(0.1)"><path
         d="M 6441.85,54.5117 V 170.527 h 51.38 c 10.37,0 18.21,-0.937 23.47,-3.054 5.35,-2.11 9.68,-5.852 12.97,-11.086 3.22,-5.254 4.82,-11.082 4.82,-17.383 0,-8.418 -2.67,-15.34 -8.11,-21.016 -5.17,-5.769 -13.41,-9.343 -24.63,-10.828 4.11,-1.926 7.24,-3.828 9.27,-5.695 4.6,-4.1017 8.72,-9.2658 12.77,-15.3791 l 20.07,-31.5742 h -19.27 l -15.22,24.1211 c -4.56,6.9336 -8.25,12.2969 -11.05,15.9297 -2.91,3.6797 -5.53,6.3475 -7.85,7.8085 -2.33,1.43 -4.61,2.473 -6.95,3.188 -1.79,0.281 -4.71,0.437 -8.61,0.437 h -17.8 V 54.5117 h -15.26 m 15.26,64.8043 h 33.04 c 6.98,0 12.51,0.657 16.37,2.2 3.93,1.433 6.95,3.738 8.94,6.933 1.98,3.27 3.07,6.739 3.07,10.555 0,5.344 -1.97,10.019 -5.97,13.535 -3.87,3.527 -10.23,5.227 -18.7,5.227 h -36.75 v -38.45"
         style="fill:#254aa5;fill-opacity:1;fill-rule:nonzero;stroke:none"
         id="path12" /><path
         d="m 6397.89,109.746 c 0,49.336 40.13,89.688 89.67,89.688 49.35,0 89.42,-40.352 89.42,-89.688 0,-49.4022 -40.07,-89.4804 -89.42,-89.4804 -49.54,0 -89.67,40.0782 -89.67,89.4804 M 6487.56,0 c 60.44,0 109.64,49.2305 109.64,109.746 0,60.449 -49.2,109.797 -109.64,109.797 -60.65,0 -109.91,-49.348 -109.91,-109.797 C 6377.65,49.2305 6426.91,0 6487.56,0"
         style="fill:#254aa5;fill-opacity:1;fill-rule:nonzero;stroke:none"
         id="path14" /><path
         d="m 2213.48,888.566 c 4.73,21.993 27.86,39.977 51.27,39.977 l 251.4,-0.055 c 23.43,0 42.9,-18.222 43.29,-40.445 l 7.59,-429.727 c 0.27,-22.16 -0.49,-58.656 -1.87,-80.992 0,0 -5.17,-84.812 -11.86,-133.965 1.82,0 9.06,17.657 16.09,39.094 0,0 28.31,86.238 51.55,135.418 l 220.18,473.102 c 9.66,20.64 36.64,37.515 60.02,37.515 l 246.5,-0.027 c 23.35,0 38.53,-17.902 33.75,-39.895 L 3002.99,73.9844 c -4.85,-21.9531 -27.97,-39.8828 -51.35,-39.8828 h -134.78 c -23.44,0 -38.31,17.8828 -33.15,39.7773 l 115.58,485.0231 c 5.2,21.813 14.22,57.524 19.97,79.258 l 38.29,144.551 c 5.88,21.711 9.95,39.457 9.02,39.457 -0.93,0 -9.52,-16.836 -18.95,-37.477 L 2619.98,71.6992 c -9.44,-20.7304 -36.42,-37.5976 -59.83,-37.5976 h -101.52 c -23.4,0 -42.83,18.1836 -43.1,40.5468 l -9.85,707.1286 c -0.32,22.289 -1.31,40.446 -2.19,40.446 -1.03,0 -5.1,-18.02 -9.25,-40.063 0,0 -27.28,-145.379 -35.23,-183.496 L 2254.18,74.1797 c -4.39,-22.0313 -27.17,-40.0781 -50.6,-40.0781 h -134.83 c -23.32,0 -38.54,17.9882 -33.78,39.9414 l 178.51,814.523"
         style="fill:#254aa5;fill-opacity:1;fill-rule:nonzero;stroke:none"
         id="path16" /><path
         d="m 1304.02,449.582 c 68.85,306.121 115.72,502.711 442.2,502.711 C 2067.76,952.211 2026,755.629 1960.41,449.582 1894.64,138.84 1818.39,5.55859 1538.7,10.3438 1253.61,5.60547 1234.93,138.84 1304.02,449.582 Z m 189.04,-123.644 c -23.85,-109.473 -23.85,-157 81.15,-157 99.89,0 118.16,47.527 142.03,157 l 66.95,298.082 c 17.88,84.027 35.89,169.722 -72.45,169.722 -114.92,0 -132.88,-85.695 -150.78,-169.722 l -66.9,-298.082"
         style="fill:#254aa5;fill-opacity:1;fill-rule:nonzero;stroke:none"
         id="path18" /><path
         d="m 619.965,1131.2 c 3.879,19.16 10.758,49.58 10.758,49.58 0,0 9.019,48.2 68.82,42.74 50.746,0.11 120.168,0 120.168,0 0,0 48.684,-1.7 38.672,-60.77 -5.996,-23.12 -6.985,-32.52 -6.985,-32.52 0,0 -30.203,-81.66 26.02,-81.2 26.316,1.32 39.656,0 39.656,0 306.556,0 374.296,-160.132 318.896,-415.436 -57.26,-255.375 -203.12,-424.942 -487.939,-424.942 0,0 -102.074,9.344 -113.015,-60.457 C 622.883,94.7266 622.691,87.5703 619.691,77.2266 612.707,52.9688 602.227,39.3555 545.84,34.1602 c -33.856,1.5937 -108.949,0 -108.949,0 0,0 -60.266,-7.2657 -46.977,51.6211 4.621,23.2227 10.508,48.3317 10.508,48.3317 12.816,82.078 -83.809,74.539 -83.809,74.539 -283.2185,0 -355.6716,169.567 -298.488,424.942 55.4258,255.304 233,427.526 502.465,415.466 69.781,1.29 79.023,-2.26 99.375,82.14 M 471.684,453.586 c 16.316,78.801 63.238,279.109 75.504,343.305 14.605,78.418 -42.633,79.281 -42.633,79.281 -156.586,-1.539 -223.012,-91.91 -256.68,-245.742 -35.039,-160.629 5.008,-246.141 161.676,-248.934 2.613,-0.047 47.066,4.414 62.133,72.09 z M 783.02,816.145 c -17.77,-78.391 -70.582,-328.25 -85.243,-387.286 -12.293,-48.425 29.625,-47.433 29.625,-47.433 161.567,0 239.407,85.637 275.108,249.004 33.69,153.793 8.47,244.16 -144.678,245.703 0,0 -59.656,-2.59 -74.812,-59.988"
         style="fill:#254aa5;fill-opacity:1;fill-rule:nonzero;stroke:none"
         id="path20" /><path
         d="m 5441.76,1155.64 c -12.05,14.75 -30.75,23.23 -51.26,23.23 h -36.81 c -40.1,0 -77.86,-30.86 -86.01,-70.26 l -9.43,-46.5 c -4.07,-20.14 0.5,-40.2 12.59,-55 12.05,-14.766 30.64,-23.243 51.11,-23.243 h 36.8 c 40.24,0 77.95,30.883 86.09,70.273 l 9.46,46.5 c 4.08,20.14 -0.51,40.18 -12.54,55"
         style="fill:#80ce47;fill-opacity:1;fill-rule:nonzero;stroke:none"
         id="path22" /><path
         d="m 4220.91,1203.21 c -10.11,12.58 -26.04,19.79 -43.62,19.79 l -584.59,0.06 c -32.84,0 -63.93,-24.4 -70.66,-55.55 L 3376.62,505.336 c -48.74,-217.309 -173.03,-305.598 -174.28,-306.418 -23.02,-16.23 -45.57,-49.953 -51.21,-76.574 L 3126.76,8.13672 h 24.59 c 119.43,0 224.11,76.52348 302.67,221.19928 57.93,106.66 81.19,208.723 82.29,213.109 4.68,21.973 12.51,57.868 17.44,79.86 l 114.75,520.925 c 2.86,12.84 17.63,24.19 31.77,24.19 h 313.1 c 5.47,0 9.9,-1.72 12.43,-4.84 2.8,-3.5 2.58,-7.83 1.86,-10.92 L 3818.05,97.9102 c -3.55,-16.1719 0.02,-32.2852 9.71,-44.3829 10.12,-12.5781 26.01,-19.7265 43.51,-19.7265 h 53.08 c 32.84,0 63.93,24.3945 70.86,55.5351 L 4230.51,1158.9 c 3.56,16.08 0.06,32.19 -9.6,44.31"
         style="fill:#80ce47;fill-opacity:1;fill-rule:nonzero;stroke:none"
         id="path24" /><path
         d="m 6430.9,907.68 c -10.1,12.57 -25.96,19.804 -43.54,19.804 h -46.48 c -32.82,0 -63.89,-24.48 -70.63,-55.589 L 6209.73,596.68 c -2.77,-12.625 -17.9,-24.149 -31.77,-24.149 h -241.44 c -5.53,0 -9.89,1.731 -12.54,4.895 -2.69,3.426 -2.47,7.785 -1.84,10.797 l 60.38,275.132 c 3.57,16.079 0,32.266 -9.74,44.364 -10.13,12.574 -26,19.789 -43.57,19.789 h -46.49 c -32.78,0 -63.84,-24.438 -70.77,-55.613 L 5641.39,97.0313 c -3.51,-16.0625 0,-32.2852 9.86,-44.3633 10.11,-12.5977 25.9,-19.7188 43.39,-19.7188 h 46.59 c 32.91,0 63.93,24.4727 70.7,55.6641 l 69.26,316.8207 c 2.74,12.879 17.65,24.136 31.79,24.136 h 241.39 c 5.47,0 9.89,-1.734 12.45,-4.812 2.79,-3.449 2.59,-7.824 1.91,-10.918 L 6099.58,97.0313 c -3.53,-16.0625 0.1,-32.2852 9.79,-44.336 10.12,-12.625 25.99,-19.7461 43.56,-19.7461 h 46.46 c 32.78,0 63.84,24.4219 70.77,55.6172 l 170.45,774.7886 c 3.53,16.079 -0.03,32.211 -9.71,44.325"
         style="fill:#80ce47;fill-opacity:1;fill-rule:nonzero;stroke:none"
         id="path26" /><path
         d="m 5660.7,907.445 c -10.06,12.598 -25.96,19.778 -43.46,19.778 h -111.11 c -30.27,0 -65.68,-20.16 -79.38,-45.95 L 5041.09,220.84 c 2.48,8.496 7.4,26.926 8.5,31.769 l 152.5,610.418 c 3.62,16.09 0.15,32.289 -9.55,44.418 -10.02,12.598 -25.83,19.778 -43.46,19.778 h -43.16 c -32.81,0 -63.89,-24.395 -70.79,-55.547 L 4865.04,98.2734 c -3.56,-16.0937 0,-32.3164 9.78,-44.4453 10.02,-12.5195 25.86,-19.7265 43.44,-19.7265 h 107.76 c 30.23,0 65.66,20.0507 80.78,45.8007 l 370.77,634.6097 c 2.12,4.375 8.47,14.316 14.61,26.64 -4.79,-18.156 -7.67,-25.543 -11.97,-44.121 L 5333.23,98.2148 c -3.55,-16.0859 0,-32.3164 9.7,-44.414 10.15,-12.4922 25.97,-19.6992 43.43,-19.6992 h 43.19 c 32.84,0 63.86,24.4257 70.74,55.5859 l 170.14,773.4215 c 3.53,16.075 0,32.246 -9.73,44.336"
         style="fill:#80ce47;fill-opacity:1;fill-rule:nonzero;stroke:none"
         id="path28" /><path
         d="m 4799.96,870.629 c -37.27,47.809 -103.32,72.066 -196.06,72.066 -178.67,0 -289.08,-71.734 -337.41,-219.285 -8.66,-26.308 -7.51,-47.461 3.47,-62.726 13.59,-18.883 35.84,-19.528 38.26,-19.528 0,0 30.95,-0.082 44,0 13.64,0.137 47.78,7.149 70.42,69.504 20.87,56.977 47.58,85.899 135.99,85.899 48.24,0 78.22,-8.196 92,-25.274 13.07,-16.176 15.32,-36.39 5.91,-79.508 -1.87,-7.027 -4.49,-18.617 -6.43,-25.058 -9.98,-33.512 -11.03,-39.149 -27.89,-48.711 l -0.74,-0.508 c -10.64,-6.57 -89.37,-34.242 -152.69,-56.465 -54.57,-19.176 -110.92,-38.988 -145.45,-52.48 -98.68,-37.989 -167.75,-117.672 -193.49,-227.071 -22.89,-103.308 -14.39,-161.289 22.8,-207.6637 34.24,-42.6289 92.91,-63.3711 179.49,-63.3711 v 0 c 71.96,0 156.98,40.8711 216.59,104.1598 0.65,0.664 1.29,1.243 1.89,1.68 6.49,-73.0546 53.86,-85.957 99.84,-88.6796 16.98,-1.0664 29.3,-1.211 52.92,-0.7735 48.71,0.8594 78.86,40 78.86,75.7031 0,30.969 -22.3,62.656 -72.36,64.961 -0.7,9.465 4.73,29.98 6.62,37.305 l 3.14,13.828 82.47,379.34 c 4.19,18.261 18.91,83.726 19.52,85.855 19.8,78.68 13.42,141.762 -21.67,186.801 z M 4593.7,452.746 4562.69,314.375 c -29.53,-128.934 -138.46,-157.871 -178.44,-157.871 -37.53,0 -61.56,7.258 -73.71,22.219 -14.07,17.136 -18.9,42.578 -6.61,93.574 11.36,47.09 34.6,103.543 103.31,130.996 18.37,7.508 37.57,14.246 55.92,21.387 32.78,12.636 58.83,23.461 90.05,36.082 18.64,7.609 25.71,10.562 31.22,10.562 1.21,0 4.92,-0.094 6,-1.386 2.2,-2.68 4.55,-8.61 3.27,-17.192"
         style="fill:#80ce47;fill-opacity:1;fill-rule:nonzero;stroke:none"
         id="path30" /></g></g></svg>
